<svg width="39" height="44" viewBox="0 0 39 44" fill="none" xmlns="http://www.w3.org/2000/svg">
<path fill-rule="evenodd" clip-rule="evenodd" d="M2.51367 2.85964V3.58408H3.61816H4.72266V5.98616V8.38824H5.6748H6.62695V5.98616V3.58408H7.69336H8.75977V2.85964V2.1352H5.63672H2.51367V2.85964ZM10.9575 2.24128C10.434 2.42849 9.96747 2.91798 9.82579 3.42844C9.78458 3.57691 9.75099 4.41909 9.75114 5.29985C9.75145 6.81682 9.76082 6.92137 9.92908 7.28305C10.0268 7.49306 10.2316 7.77468 10.3843 7.90889C10.8498 8.318 11.2442 8.38824 13.0773 8.38824H14.7012V7.58754V6.78685H13.2311C11.7221 6.78685 11.5781 6.76001 11.5781 6.47839C11.5781 6.17329 11.7932 6.11648 13.0635 6.08605C14.4648 6.05258 14.7723 5.96092 15.2442 5.43642C15.5874 5.05499 15.723 4.67081 15.723 4.07974C15.7231 3.25488 15.2143 2.50139 14.4906 2.25447C14.0325 2.09822 11.3851 2.08838 10.9575 2.24128ZM16.9863 2.89251V3.66033H18.2694C19.4158 3.66033 19.566 3.6752 19.6786 3.79981C20.0263 4.18444 19.6999 4.42168 18.8165 4.42625C17.8113 4.43144 17.2626 4.70314 16.8547 5.39776C16.671 5.71064 16.6437 5.83669 16.6448 6.36744C16.6464 7.09355 16.8047 7.45814 17.3041 7.88609C17.8377 8.34332 18.117 8.38824 20.4279 8.38824H22.4707V7.70193V7.01562H22.2554C22.1227 7.01562 21.9695 6.94028 21.8555 6.81903C21.6751 6.62686 21.67 6.58607 21.6317 5.00794C21.5889 3.24374 21.5669 3.14858 21.0937 2.67487C20.6107 2.19125 20.5391 2.1757 18.6812 2.14901L16.9863 2.12476V2.89251ZM22.8516 2.85964V3.58408H23.9561H25.0605V5.98616V8.38824H25.9746H26.8887V5.98616V3.58408H27.9932H29.0977V2.85964V2.1352H25.9746H22.8516V2.85964ZM30.8624 2.29885C30.6693 2.39448 30.4482 2.58984 30.3292 2.76973L30.126 3.07712L30.1049 6.87653L30.0838 10.6759H30.9999H31.916V9.53773V8.39945L33.4712 8.37481L35.0264 8.35011L35.3565 8.12035C35.5492 7.98614 35.7578 7.74944 35.8579 7.55132C36.0222 7.22609 36.0293 7.13222 36.0293 5.28124C36.0293 3.71097 36.0073 3.29766 35.9114 3.06797C35.7613 2.70842 35.5327 2.46372 35.1754 2.28032C34.9205 2.14939 34.7115 2.1352 33.0426 2.13528C31.3044 2.13536 31.1724 2.14519 30.8624 2.29885ZM11.9862 3.50721C11.7045 3.62098 11.5781 3.88819 11.5781 4.36982V4.81661L12.5243 4.79137C13.4032 4.76788 13.4846 4.75286 13.6669 4.58121C13.8084 4.44799 13.8626 4.32003 13.8608 4.12367C13.8563 3.6052 13.5575 3.42882 12.6967 3.43637C12.3957 3.43904 12.076 3.47091 11.9862 3.50721ZM32.6153 3.71234C32.4761 3.78097 32.2704 3.95758 32.1582 4.10476C31.9584 4.36685 31.9536 4.39956 31.9287 5.65589L31.9031 6.93936H32.4009C33.2202 6.93936 33.6211 6.81911 33.9251 6.48228C34.2329 6.14119 34.3169 5.75769 34.2596 4.9557C34.2146 4.32544 34.0373 3.99045 33.6256 3.75695C33.2697 3.5551 32.9615 3.54153 32.6153 3.71234ZM18.7324 5.94216C18.381 6.294 18.4513 6.75009 18.8922 6.97833C19.5363 7.31172 20.1228 6.43981 19.6039 5.92027C19.3311 5.6472 19.0192 5.65505 18.7324 5.94216ZM4.72266 15.5152V19.0611L15.4058 19.0817C27.5204 19.105 26.4287 19.0423 27.0653 19.7512C27.9568 20.7438 27.6362 22.1675 26.3936 22.7346C26.1059 22.8659 25.6981 22.8737 19.0701 22.8753C12.0446 22.877 10.9767 22.9097 10.0166 23.1529C7.53127 23.7825 5.39 25.4206 4.14946 27.6414C2.80061 30.056 2.63623 33.3192 3.73379 35.8911C4.89206 38.605 7.11285 40.5008 10.0123 41.251C11.0218 41.5122 12.3502 41.5594 18.6792 41.5597L24.7521 41.5598L24.773 37.3791L24.7939 33.1984L25.0035 32.8815C25.4709 32.1746 26.5074 32.0287 27.1055 32.5857C27.2039 32.6772 27.3496 32.8795 27.4293 33.0351C27.5664 33.3029 27.5742 33.5382 27.5742 37.4389V41.5598H31.8031H36.032L36.0097 29.416C35.9847 15.7487 36.0438 17.0552 35.3876 15.6707C34.7524 14.3304 33.7016 13.2773 32.3466 12.6233C30.9644 11.9561 32.3806 12.0174 17.729 11.9919L4.72266 11.9693V15.5152ZM12.6055 29.0384C11.3963 29.457 10.5496 30.4428 10.3382 31.678C10.0629 33.2869 11.1431 34.9239 12.7557 35.3417C14.294 35.7402 15.8555 34.9802 16.5497 33.495C17.03 32.4675 16.8981 31.1619 16.2233 30.2628C15.5429 29.3563 14.6345 28.8986 13.5257 28.9037C13.219 28.9051 12.823 28.9631 12.6055 29.0384Z" fill="#2A2A2A"/>
</svg>
